<svg width="80" height="80" viewBox="0 0 80 80" fill="none" xmlns="http://www.w3.org/2000/svg">
  <circle cx="40" cy="40" r="36" fill="#7c6fb0" />
  <path d="M40 15C26.2 15 15 26.2 15 40C15 53.8 26.2 65 40 65C53.8 65 65 53.8 65 40C65 26.2 53.8 15 40 15ZM40 60C29 60 20 51 20 40C20 29 29 20 40 20C51 20 60 29 60 40C60 51 51 60 40 60Z" fill="#f7d2cd" />
  <path d="M40 25C32.8 25 27 30.8 27 38C27 45.2 32.8 51 40 51C47.2 51 53 45.2 53 38C53 30.8 47.2 25 40 25ZM40 46C35.6 46 32 42.4 32 38C32 33.6 35.6 30 40 30C44.4 30 48 33.6 48 38C48 42.4 44.4 46 40 46Z" fill="#ffa8a8" />
  <path d="M40 35C38.3 35 37 36.3 37 38C37 39.7 38.3 41 40 41C41.7 41 43 39.7 43 38C43 36.3 41.7 35 40 35Z" fill="#7c6fb0" />
  <path d="M48 25L53 20M32 25L27 20M48 51L53 56M32 51L27 56" stroke="#f7d2cd" stroke-width="2" />
  <path d="M54 38H60M20 38H26M40 26V20M40 56V50" stroke="#f7d2cd" stroke-width="2" />
</svg>
